<?xml version="1.0" encoding="UTF-8" standalone="no"?><svg xmlns="http://www.w3.org/2000/svg" xmlns:xlink="http://www.w3.org/1999/xlink" contentStyleType="text/css" height="1441px" preserveAspectRatio="none" style="width:1498px;height:1441px;background:#FFFFFF;" version="1.1" viewBox="0 0 1498 1441" width="1498px" zoomAndPan="magnify"><defs/><g><rect fill="#808080" height="36.7999" rx="12.5" ry="12.5" style="stroke:#181818;stroke-width:1.5;" width="176" x="10" y="701.5991"/><text fill="#FFFFFF" font-family="sans-serif" font-size="14" lengthAdjust="spacing" textLength="156" x="20" y="725.5991">CAHIER DES CHARGES</text><rect fill="#7FFFD4" height="36.7999" rx="12.5" ry="12.5" style="stroke:#181818;stroke-width:1.5;" width="88" x="236" y="218.7997"/><text fill="#000000" font-family="sans-serif" font-size="14" lengthAdjust="spacing" textLength="68" x="246" y="242.7997">0. BESOIN</text><rect fill="#F5F5DC" height="36.7999" rx="12.5" ry="12.5" style="stroke:#181818;stroke-width:1.5;" width="70" x="374" y="76.7999"/><text fill="#000000" font-family="sans-serif" font-size="14" lengthAdjust="spacing" textLength="50" x="384" y="100.7999">CLIENT</text><rect fill="#F1F1F1" height="36.7999" rx="12.5" ry="12.5" style="stroke:#181818;stroke-width:1.5;" width="139" x="494" y="20"/><text fill="#000000" font-family="sans-serif" font-size="14" lengthAdjust="spacing" textLength="119" x="504" y="43.9999">Société MODULOX</text><path d="M444,95.1999 L454,95.1999 C469,95.1999 469,38.4 484,38.4 L494,38.4 " fill="none" style="stroke:#181818;stroke-width:1.0;"/><rect fill="#F1F1F1" height="36.7999" rx="12.5" ry="12.5" style="stroke:#181818;stroke-width:1.5;" width="358" x="494" y="76.7999"/><text fill="#000000" font-family="sans-serif" font-size="14" lengthAdjust="spacing" textLength="338" x="504" y="100.7999">Importateur &amp; distributeur exclusif de PANACOTRONS</text><rect fill="#F1F1F1" height="36.7999" rx="12.5" ry="12.5" style="stroke:#181818;stroke-width:1.5;" width="228" x="902" y="76.7999"/><text fill="#000000" font-family="sans-serif" font-size="14" lengthAdjust="spacing" textLength="208" x="912" y="100.7999">Robots de surveillance haute tech</text><rect fill="#F1F1F1" height="36.7999" rx="12.5" ry="12.5" style="stroke:#181818;stroke-width:1.5;" width="82" x="1180" y="20"/><text fill="#000000" font-family="sans-serif" font-size="14" lengthAdjust="spacing" textLength="62" x="1190" y="43.9999">MODEL 1</text><path d="M1130,95.1999 L1140,95.1999 C1155,95.1999 1155,38.4 1170,38.4 L1180,38.4 " fill="none" style="stroke:#181818;stroke-width:1.0;"/><rect fill="#F1F1F1" height="36.7999" rx="12.5" ry="12.5" style="stroke:#181818;stroke-width:1.5;" width="82" x="1180" y="76.7999"/><text fill="#000000" font-family="sans-serif" font-size="14" lengthAdjust="spacing" textLength="62" x="1190" y="100.7999">MODEL 2</text><path d="M1130,95.1999 L1140,95.1999 C1155,95.1999 1155,95.1999 1170,95.1999 L1180,95.1999 " fill="none" style="stroke:#181818;stroke-width:1.0;"/><rect fill="#F1F1F1" height="36.7999" rx="12.5" ry="12.5" style="stroke:#181818;stroke-width:1.5;" width="82" x="1180" y="133.5999"/><text fill="#000000" font-family="sans-serif" font-size="14" lengthAdjust="spacing" textLength="62" x="1190" y="157.5998">MODEL 3</text><path d="M1130,95.1999 L1140,95.1999 C1155,95.1999 1155,151.9998 1170,151.9998 L1180,151.9998 " fill="none" style="stroke:#181818;stroke-width:1.0;"/><path d="M852,95.1999 L862,95.1999 C877,95.1999 877,95.1999 892,95.1999 L902,95.1999 " fill="none" style="stroke:#181818;stroke-width:1.0;"/><path d="M444,95.1999 L454,95.1999 C469,95.1999 469,95.1999 484,95.1999 L494,95.1999 " fill="none" style="stroke:#181818;stroke-width:1.0;"/><path d="M324,237.1997 L334,237.1997 C349,237.1997 349,95.1999 364,95.1999 L374,95.1999 " fill="none" style="stroke:#181818;stroke-width:1.0;"/><rect fill="#F5F5DC" height="36.7999" rx="12.5" ry="12.5" style="stroke:#181818;stroke-width:1.5;" width="87" x="374" y="190.3998"/><text fill="#000000" font-family="sans-serif" font-size="14" lengthAdjust="spacing" textLength="67" x="384" y="214.3997">OBJECTIF</text><rect fill="#F1F1F1" height="36.7999" rx="12.5" ry="12.5" style="stroke:#181818;stroke-width:1.5;" width="152" x="511" y="190.3998"/><text fill="#000000" font-family="sans-serif" font-size="14" lengthAdjust="spacing" textLength="132" x="521" y="214.3997">Vendre leurs produits</text><path d="M461,208.7997 L471,208.7997 C486,208.7997 486,208.7997 501,208.7997 L511,208.7997 " fill="none" style="stroke:#181818;stroke-width:1.0;"/><path d="M324,237.1997 L334,237.1997 C349,237.1997 349,208.7997 364,208.7997 L374,208.7997 " fill="none" style="stroke:#181818;stroke-width:1.0;"/><rect fill="#F5F5DC" height="36.7999" rx="12.5" ry="12.5" style="stroke:#181818;stroke-width:1.5;" width="75" x="374" y="247.1997"/><text fill="#000000" font-family="sans-serif" font-size="14" lengthAdjust="spacing" textLength="55" x="384" y="271.1996">PROJET</text><rect fill="#F1F1F1" height="36.7999" rx="12.5" ry="12.5" style="stroke:#181818;stroke-width:1.5;" width="174" x="499" y="247.1997"/><text fill="#000000" font-family="sans-serif" font-size="14" lengthAdjust="spacing" textLength="154" x="509" y="271.1996">Créer une page d'accueil</text><rect fill="#FFE0E0" height="36.7999" rx="12.5" ry="12.5" style="stroke:#181818;stroke-width:1.5;" width="116" x="723" y="247.1997"/><text fill="#000000" font-family="sans-serif" font-size="14" lengthAdjust="spacing" textLength="96" x="733" y="271.1996">Site ecommerce</text><path d="M673,265.5997 L683,265.5997 C698,265.5997 698,265.5997 713,265.5997 L723,265.5997 " fill="none" style="stroke:#181818;stroke-width:1.0;"/><path d="M449,265.5997 L459,265.5997 C474,265.5997 474,265.5997 489,265.5997 L499,265.5997 " fill="none" style="stroke:#181818;stroke-width:1.0;"/><path d="M324,237.1997 L334,237.1997 C349,237.1997 349,265.5997 364,265.5997 L374,265.5997 " fill="none" style="stroke:#181818;stroke-width:1.0;"/><rect fill="#F5F5DC" height="36.7999" rx="12.5" ry="12.5" style="stroke:#181818;stroke-width:1.5;" width="60" x="374" y="360.7996"/><text fill="#000000" font-family="sans-serif" font-size="14" lengthAdjust="spacing" textLength="40" x="384" y="384.7995">CIBLE</text><rect fill="#F1F1F1" height="36.7999" rx="12.5" ry="12.5" style="stroke:#181818;stroke-width:1.5;" width="109" x="484" y="360.7996"/><text fill="#000000" font-family="sans-serif" font-size="14" lengthAdjust="spacing" textLength="89" x="494" y="384.7995">Professionnels</text><rect fill="#F1F1F1" height="36.7999" rx="12.5" ry="12.5" style="stroke:#181818;stroke-width:1.5;" width="64" x="643" y="303.9996"/><text fill="#000000" font-family="sans-serif" font-size="14" lengthAdjust="spacing" textLength="44" x="653" y="327.9996">Qualité</text><rect fill="#F1F1F1" height="36.7999" rx="12.5" ry="12.5" style="stroke:#181818;stroke-width:1.5;" width="79" x="757" y="303.9996"/><text fill="#000000" font-family="sans-serif" font-size="14" lengthAdjust="spacing" textLength="59" x="767" y="327.9996">Durabilité</text><path d="M707,322.3996 L717,322.3996 C732,322.3996 732,322.3996 747,322.3996 L757,322.3996 " fill="none" style="stroke:#181818;stroke-width:1.0;"/><path d="M593,379.1995 L603,379.1995 C618,379.1995 618,322.3996 633,322.3996 L643,322.3996 " fill="none" style="stroke:#181818;stroke-width:1.0;"/><rect fill="#F1F1F1" height="36.7999" rx="12.5" ry="12.5" style="stroke:#181818;stroke-width:1.5;" width="52" x="643" y="360.7996"/><text fill="#000000" font-family="sans-serif" font-size="14" lengthAdjust="spacing" textLength="32" x="653" y="384.7995">Stats</text><rect fill="#F1F1F1" height="36.7999" rx="12.5" ry="12.5" style="stroke:#181818;stroke-width:1.5;" width="87" x="745" y="360.7996"/><text fill="#000000" font-family="sans-serif" font-size="14" lengthAdjust="spacing" textLength="67" x="755" y="384.7995">Réputation</text><path d="M695,379.1995 L705,379.1995 C720,379.1995 720,379.1995 735,379.1995 L745,379.1995 " fill="none" style="stroke:#181818;stroke-width:1.0;"/><path d="M593,379.1995 L603,379.1995 C618,379.1995 618,379.1995 633,379.1995 L643,379.1995 " fill="none" style="stroke:#181818;stroke-width:1.0;"/><rect fill="#F1F1F1" height="36.7999" rx="12.5" ry="12.5" style="stroke:#181818;stroke-width:1.5;" width="82" x="643" y="417.5995"/><text fill="#000000" font-family="sans-serif" font-size="14" lengthAdjust="spacing" textLength="62" x="653" y="441.5994">Confiance</text><rect fill="#F1F1F1" height="36.7999" rx="12.5" ry="12.5" style="stroke:#181818;stroke-width:1.5;" width="118" x="775" y="417.5995"/><text fill="#000000" font-family="sans-serif" font-size="14" lengthAdjust="spacing" textLength="98" x="785" y="441.5994">SAV performant</text><path d="M725,435.9995 L735,435.9995 C750,435.9995 750,435.9995 765,435.9995 L775,435.9995 " fill="none" style="stroke:#181818;stroke-width:1.0;"/><path d="M593,379.1995 L603,379.1995 C618,379.1995 618,435.9995 633,435.9995 L643,435.9995 " fill="none" style="stroke:#181818;stroke-width:1.0;"/><path d="M434,379.1995 L444,379.1995 C459,379.1995 459,379.1995 474,379.1995 L484,379.1995 " fill="none" style="stroke:#181818;stroke-width:1.0;"/><path d="M324,237.1997 L334,237.1997 C349,237.1997 349,379.1995 364,379.1995 L374,379.1995 " fill="none" style="stroke:#181818;stroke-width:1.0;"/><path d="M186,719.9991 L196,719.9991 C211,719.9991 211,237.1997 226,237.1997 L236,237.1997 " fill="none" style="stroke:#181818;stroke-width:1.0;"/><rect fill="#7FFFD4" height="36.7999" rx="12.5" ry="12.5" style="stroke:#181818;stroke-width:1.5;" width="232" x="236" y="744.1991"/><text fill="#000000" font-family="sans-serif" font-size="14" lengthAdjust="spacing" textLength="212" x="246" y="768.199">1. CONCEPTION COMPOSANTS</text><rect fill="#00FFFF" height="36.7999" rx="12.5" ry="12.5" style="stroke:#181818;stroke-width:1.5;" width="68" x="518" y="744.1991"/><text fill="#000000" font-family="sans-serif" font-size="14" lengthAdjust="spacing" textLength="48" x="528" y="768.199">FRONT</text><rect fill="#F1F1F1" height="36.7999" rx="12.5" ry="12.5" style="stroke:#181818;stroke-width:1.5;" width="166" x="636" y="744.1991"/><text fill="#000000" font-family="sans-serif" font-size="14" lengthAdjust="spacing" textLength="146" x="646" y="768.199">Maquettage des écrans</text><rect fill="#F1F1F1" height="36.7999" rx="12.5" ry="12.5" style="stroke:#181818;stroke-width:1.5;" width="115" x="852" y="673.1992"/><text fill="#000000" font-family="sans-serif" font-size="14" lengthAdjust="spacing" textLength="95" x="862" y="697.1991">Recherche web</text><rect fill="#F1F1F1" height="36.7999" rx="12.5" ry="12.5" style="stroke:#181818;stroke-width:1.5;" width="170" x="1017" y="474.3994"/><text fill="#000000" font-family="sans-serif" font-size="14" lengthAdjust="spacing" textLength="150" x="1027" y="498.3994">Site modèle de référence</text><rect fill="#F1F1F1" height="36.7999" rx="12.5" ry="12.5" style="stroke:#181818;stroke-width:1.5;" width="147" x="1237" y="474.3994"/><text fill="#000000" font-family="sans-serif" font-size="14" lengthAdjust="spacing" textLength="127" x="1247" y="498.3994">https://ajax.systems/</text><path d="M1187,492.7994 L1197,492.7994 C1212,492.7994 1212,492.7994 1227,492.7994 L1237,492.7994 " fill="none" style="stroke:#181818;stroke-width:1.0;"/><path d="M967,691.5991 L977,691.5991 C992,691.5991 992,492.7994 1007,492.7994 L1017,492.7994 " fill="none" style="stroke:#181818;stroke-width:1.0;"/><rect fill="#F1F1F1" height="36.7999" rx="12.5" ry="12.5" style="stroke:#181818;stroke-width:1.5;" width="69" x="1017" y="701.5991"/><text fill="#000000" font-family="sans-serif" font-size="14" lengthAdjust="spacing" textLength="49" x="1027" y="725.5991">Analyse</text><rect fill="#F1F1F1" height="36.7999" rx="12.5" ry="12.5" style="stroke:#181818;stroke-width:1.5;" width="167" x="1136" y="531.1993"/><text fill="#000000" font-family="sans-serif" font-size="14" lengthAdjust="spacing" textLength="147" x="1146" y="555.1993">Milieu de la surveillance</text><path d="M1086,719.9991 L1096,719.9991 C1111,719.9991 1111,549.5993 1126,549.5993 L1136,549.5993 " fill="none" style="stroke:#181818;stroke-width:1.0;"/><rect fill="#F1F1F1" height="36.7999" rx="12.5" ry="12.5" style="stroke:#181818;stroke-width:1.5;" width="295" x="1136" y="587.9993"/><text fill="#000000" font-family="sans-serif" font-size="14" lengthAdjust="spacing" textLength="275" x="1146" y="611.9992">Bonne image du produit (moderne, qualitatif)</text><path d="M1086,719.9991 L1096,719.9991 C1111,719.9991 1111,606.3992 1126,606.3992 L1136,606.3992 " fill="none" style="stroke:#181818;stroke-width:1.0;"/><rect fill="#F1F1F1" height="36.7999" rx="12.5" ry="12.5" style="stroke:#181818;stroke-width:1.5;" width="186" x="1136" y="758.399"/><text fill="#000000" font-family="sans-serif" font-size="14" lengthAdjust="spacing" textLength="166" x="1146" y="782.399">Structure du site cohérente</text><rect fill="#F1F1F1" height="36.7999" rx="12.5" ry="12.5" style="stroke:#181818;stroke-width:1.5;" width="114" x="1372" y="644.7992"/><text fill="#000000" font-family="sans-serif" font-size="14" lengthAdjust="spacing" textLength="94" x="1382" y="668.7991">Hero avec CTA</text><path d="M1322,776.799 L1332,776.799 C1347,776.799 1347,663.1992 1362,663.1992 L1372,663.1992 " fill="none" style="stroke:#181818;stroke-width:1.0;"/><rect fill="#F1F1F1" height="36.7999" rx="12.5" ry="12.5" style="stroke:#181818;stroke-width:1.5;" width="92" x="1372" y="701.5991"/><text fill="#000000" font-family="sans-serif" font-size="14" lengthAdjust="spacing" textLength="72" x="1382" y="725.5991">Social proof</text><path d="M1322,776.799 L1332,776.799 C1347,776.799 1347,719.9991 1362,719.9991 L1372,719.9991 " fill="none" style="stroke:#181818;stroke-width:1.0;"/><rect fill="#F1F1F1" height="36.7999" rx="12.5" ry="12.5" style="stroke:#181818;stroke-width:1.5;" width="71" x="1372" y="758.399"/><text fill="#000000" font-family="sans-serif" font-size="14" lengthAdjust="spacing" textLength="51" x="1382" y="782.399">Produits</text><path d="M1322,776.799 L1332,776.799 C1347,776.799 1347,776.799 1362,776.799 L1372,776.799 " fill="none" style="stroke:#181818;stroke-width:1.0;"/><rect fill="#F1F1F1" height="36.7999" rx="12.5" ry="12.5" style="stroke:#181818;stroke-width:1.5;" width="92" x="1372" y="815.199"/><text fill="#000000" font-family="sans-serif" font-size="14" lengthAdjust="spacing" textLength="72" x="1382" y="839.1989">Social proof</text><path d="M1322,776.799 L1332,776.799 C1347,776.799 1347,833.5989 1362,833.5989 L1372,833.5989 " fill="none" style="stroke:#181818;stroke-width:1.0;"/><rect fill="#F1F1F1" height="36.7999" rx="12.5" ry="12.5" style="stroke:#181818;stroke-width:1.5;" width="58" x="1372" y="871.9989"/><text fill="#000000" font-family="sans-serif" font-size="14" lengthAdjust="spacing" textLength="38" x="1382" y="895.9988">Footer</text><path d="M1322,776.799 L1332,776.799 C1347,776.799 1347,890.3989 1362,890.3989 L1372,890.3989 " fill="none" style="stroke:#181818;stroke-width:1.0;"/><path d="M1086,719.9991 L1096,719.9991 C1111,719.9991 1111,776.799 1126,776.799 L1136,776.799 " fill="none" style="stroke:#181818;stroke-width:1.0;"/><path d="M967,691.5991 L977,691.5991 C992,691.5991 992,719.9991 1007,719.9991 L1017,719.9991 " fill="none" style="stroke:#181818;stroke-width:1.0;"/><path d="M802,762.599 L812,762.599 C827,762.599 827,691.5991 842,691.5991 L852,691.5991 " fill="none" style="stroke:#181818;stroke-width:1.0;"/><rect fill="#F1F1F1" height="36.7999" rx="12.5" ry="12.5" style="stroke:#181818;stroke-width:1.5;" width="142" x="852" y="957.1988"/><text fill="#000000" font-family="sans-serif" font-size="14" lengthAdjust="spacing" textLength="122" x="862" y="981.1987">Schéma des écrans</text><rect fill="#F1F1F1" height="36.7999" rx="12.5" ry="12.5" style="stroke:#181818;stroke-width:1.5;" width="99" x="1044" y="928.7988"/><text fill="#000000" font-family="sans-serif" font-size="14" lengthAdjust="spacing" textLength="79" x="1054" y="952.7988">1. Wireframe</text><path d="M994,975.5988 L1004,975.5988 C1019,975.5988 1019,947.1988 1034,947.1988 L1044,947.1988 " fill="none" style="stroke:#181818;stroke-width:1.0;"/><rect fill="#F1F1F1" height="36.7999" rx="12.5" ry="12.5" style="stroke:#181818;stroke-width:1.5;" width="94" x="1044" y="985.5988"/><text fill="#000000" font-family="sans-serif" font-size="14" lengthAdjust="spacing" textLength="74" x="1054" y="1009.5987">2. Maquette</text><path d="M994,975.5988 L1004,975.5988 C1019,975.5988 1019,1003.9987 1034,1003.9987 L1044,1003.9987 " fill="none" style="stroke:#181818;stroke-width:1.0;"/><path d="M802,762.599 L812,762.599 C827,762.599 827,975.5988 842,975.5988 L852,975.5988 " fill="none" style="stroke:#181818;stroke-width:1.0;"/><rect fill="#F1F1F1" height="36.7999" rx="12.5" ry="12.5" style="stroke:#181818;stroke-width:1.5;" width="145" x="852" y="1013.9987"/><text fill="#000000" font-family="sans-serif" font-size="14" lengthAdjust="spacing" textLength="125" x="862" y="1037.9987">Validation utilisateur</text><path d="M802,762.599 L812,762.599 C827,762.599 827,1032.3987 842,1032.3987 L852,1032.3987 " fill="none" style="stroke:#181818;stroke-width:1.0;"/><path d="M586,762.599 L596,762.599 C611,762.599 611,762.599 626,762.599 L636,762.599 " fill="none" style="stroke:#181818;stroke-width:1.0;"/><path d="M468,762.599 L478,762.599 C493,762.599 493,762.599 508,762.599 L518,762.599 " fill="none" style="stroke:#181818;stroke-width:1.0;"/><path d="M186,719.9991 L196,719.9991 C211,719.9991 211,762.599 226,762.599 L236,762.599 " fill="none" style="stroke:#181818;stroke-width:1.0;"/><rect fill="#7FFFD4" height="36.7999" rx="12.5" ry="12.5" style="stroke:#181818;stroke-width:1.5;" width="76" x="236" y="1127.5986"/><text fill="#000000" font-family="sans-serif" font-size="14" lengthAdjust="spacing" textLength="56" x="246" y="1151.5985">2. CODE</text><rect fill="#FFFF00" height="36.7999" rx="12.5" ry="12.5" style="stroke:#181818;stroke-width:1.5;" width="127" x="362" y="1099.1986"/><text fill="#000000" font-family="sans-serif" font-size="14" lengthAdjust="spacing" textLength="107" x="372" y="1123.1985">Interface statique</text><rect fill="#F1F1F1" height="36.7999" rx="12.5" ry="12.5" style="stroke:#181818;stroke-width:1.5;" width="187" x="539" y="1070.7986"/><text fill="#000000" font-family="sans-serif" font-size="14" lengthAdjust="spacing" textLength="167" x="549" y="1094.7986">Langage de balise (HTML)</text><path d="M489,1117.5986 L499,1117.5986 C514,1117.5986 514,1089.1986 529,1089.1986 L539,1089.1986 " fill="none" style="stroke:#181818;stroke-width:1.0;"/><rect fill="#F1F1F1" height="36.7999" rx="12.5" ry="12.5" style="stroke:#181818;stroke-width:1.5;" width="168" x="539" y="1127.5986"/><text fill="#000000" font-family="sans-serif" font-size="14" lengthAdjust="spacing" textLength="148" x="549" y="1151.5985">Langage de style (CSS)</text><path d="M489,1117.5986 L499,1117.5986 C514,1117.5986 514,1145.9985 529,1145.9985 L539,1145.9985 " fill="none" style="stroke:#181818;stroke-width:1.0;"/><path d="M312,1145.9985 L322,1145.9985 C337,1145.9985 337,1117.5986 352,1117.5986 L362,1117.5986 " fill="none" style="stroke:#181818;stroke-width:1.0;"/><rect fill="#FFFF00" height="36.7999" rx="12.5" ry="12.5" style="stroke:#181818;stroke-width:1.5;" width="155" x="362" y="1184.3985"/><text fill="#000000" font-family="sans-serif" font-size="14" lengthAdjust="spacing" textLength="135" x="372" y="1208.3984">Eléments dynamiques</text><rect fill="#F1F1F1" height="36.7999" rx="12.5" ry="12.5" style="stroke:#181818;stroke-width:1.5;" width="162" x="567" y="1184.3985"/><text fill="#000000" font-family="sans-serif" font-size="14" lengthAdjust="spacing" textLength="142" x="577" y="1208.3984">Langage de script (JS)</text><path d="M517,1202.7985 L527,1202.7985 C542,1202.7985 542,1202.7985 557,1202.7985 L567,1202.7985 " fill="none" style="stroke:#181818;stroke-width:1.0;"/><path d="M312,1145.9985 L322,1145.9985 C337,1145.9985 337,1202.7985 352,1202.7985 L362,1202.7985 " fill="none" style="stroke:#181818;stroke-width:1.0;"/><path d="M186,719.9991 L196,719.9991 C211,719.9991 211,1145.9985 226,1145.9985 L236,1145.9985 " fill="none" style="stroke:#181818;stroke-width:1.0;"/><rect fill="#7FFFD4" height="36.7999" rx="12.5" ry="12.5" style="stroke:#181818;stroke-width:1.5;" width="72" x="236" y="1184.3985"/><text fill="#000000" font-family="sans-serif" font-size="14" lengthAdjust="spacing" textLength="52" x="246" y="1208.3984">3. TEST</text><path d="M186,719.9991 L196,719.9991 C211,719.9991 211,1202.7985 226,1202.7985 L236,1202.7985 " fill="none" style="stroke:#181818;stroke-width:1.0;"/><rect fill="#7FFFD4" height="36.7999" rx="12.5" ry="12.5" style="stroke:#181818;stroke-width:1.5;" width="257" x="236" y="1241.1984"/><text fill="#000000" font-family="sans-serif" font-size="14" lengthAdjust="spacing" textLength="237" x="246" y="1265.1984">4. COMPOSANTS OPERATIONNELS</text><path d="M186,719.9991 L196,719.9991 C211,719.9991 211,1259.5984 226,1259.5984 L236,1259.5984 " fill="none" style="stroke:#181818;stroke-width:1.0;"/><rect fill="#7FFFD4" height="36.7999" rx="12.5" ry="12.5" style="stroke:#181818;stroke-width:1.5;" width="119" x="236" y="1297.9984"/><text fill="#000000" font-family="sans-serif" font-size="14" lengthAdjust="spacing" textLength="99" x="246" y="1321.9983">5. VALIDATION</text><path d="M186,719.9991 L196,719.9991 C211,719.9991 211,1316.3983 226,1316.3983 L236,1316.3983 " fill="none" style="stroke:#181818;stroke-width:1.0;"/><rect fill="#7FFFD4" height="36.7999" rx="12.5" ry="12.5" style="stroke:#181818;stroke-width:1.5;" width="277" x="236" y="1354.7983"/><text fill="#000000" font-family="sans-serif" font-size="14" lengthAdjust="spacing" textLength="257" x="246" y="1378.7982">6. DEPLOIEMENT &amp; DOCUMENTATION</text><rect fill="#F1F1F1" height="36.7999" rx="12.5" ry="12.5" style="stroke:#181818;stroke-width:1.5;" width="73" x="563" y="1326.3983"/><text fill="#000000" font-family="sans-serif" font-size="14" lengthAdjust="spacing" textLength="53" x="573" y="1350.3983">GITHUB</text><path d="M513,1373.1982 L523,1373.1982 C538,1373.1982 538,1344.7983 553,1344.7983 L563,1344.7983 " fill="none" style="stroke:#181818;stroke-width:1.0;"/><rect fill="#F1F1F1" height="36.7999" rx="12.5" ry="12.5" style="stroke:#181818;stroke-width:1.5;" width="102" x="563" y="1383.1982"/><text fill="#000000" font-family="sans-serif" font-size="14" lengthAdjust="spacing" textLength="82" x="573" y="1407.1982">README.md</text><path d="M513,1373.1982 L523,1373.1982 C538,1373.1982 538,1401.5982 553,1401.5982 L563,1401.5982 " fill="none" style="stroke:#181818;stroke-width:1.0;"/><path d="M186,719.9991 L196,719.9991 C211,719.9991 211,1373.1982 226,1373.1982 L236,1373.1982 " fill="none" style="stroke:#181818;stroke-width:1.0;"/><!--MD5=[62daab112d229961b17cca7bb56aca46]
@startmindmap
skinparam classfontcolor white
+[#gray] CAHIER DES CHARGES<<class>>
++[#aquamarine] 0. BESOIN
+++[#beige] CLIENT
++++ Société MODULOX
++++ Importateur & distributeur exclusif de PANACOTRONS
+++++ Robots de surveillance haute tech
++++++ MODEL 1
++++++ MODEL 2
++++++ MODEL 3
+++[#beige] OBJECTIF
++++ Vendre leurs produits
+++[#beige] PROJET
++++ Créer une page d'accueil
+++++[#implementation] Site ecommerce
+++[#beige] CIBLE
++++ Professionnels
+++++ Qualité
++++++ Durabilité
+++++ Stats
++++++ Réputation
+++++ Confiance
++++++ SAV performant
++[#aquamarine] 1. CONCEPTION COMPOSANTS
+++[#cyan] FRONT
++++ Maquettage des écrans
+++++ Recherche web
++++++ Site modèle de référence
+++++++ https://ajax.systems/
++++++ Analyse
+++++++ Milieu de la surveillance
+++++++ Bonne image du produit (moderne, qualitatif)
+++++++ Structure du site cohérente
++++++++ Hero avec CTA
++++++++ Social proof
++++++++ Produits
++++++++ Social proof
++++++++ Footer

+++++ Schéma des écrans
++++++ 1. Wireframe
++++++ 2. Maquette
+++++ Validation utilisateur
++[#aquamarine] 2. CODE
+++[#yellow] Interface statique
++++ Langage de balise (HTML)
++++ Langage de style (CSS)
+++[#yellow] Eléments dynamiques
++++ Langage de script (JS)
++[#aquamarine] 3. TEST
++[#aquamarine] 4. COMPOSANTS OPERATIONNELS
++[#aquamarine] 5. VALIDATION
++[#aquamarine] 6. DEPLOIEMENT & DOCUMENTATION
+++ GITHUB
+++ README.md
@endmindmap

PlantUML version 1.2022.5(Sat Apr 30 10:55:52 GMT 2022)
(GPL source distribution)
Java Runtime: OpenJDK Runtime Environment
JVM: OpenJDK 64-Bit Server VM
Default Encoding: UTF-8
Language: en
Country: US
--></g></svg>